<mxfile host="app.diagrams.net" agent="Mozilla/5.0 (Macintosh; Intel Mac OS X 10_15_7) AppleWebKit/537.36 (KHTML, like Gecko) Chrome/133.0.0.0 Safari/537.36" version="26.0.14">
  <diagram name="Page-1" id="Pkhy4FiwnXirAxHYof2Z">
    <mxGraphModel dx="821" dy="547" grid="1" gridSize="9" guides="1" tooltips="1" connect="1" arrows="1" fold="1" page="1" pageScale="1" pageWidth="3300" pageHeight="4681" math="0" shadow="0">
      <root>
        <mxCell id="0" />
        <mxCell id="1" parent="0" />
        <mxCell id="-NjdJhKXfd7tvw3mfi7Q-1" value="" style="shape=umlActor;verticalLabelPosition=bottom;verticalAlign=top;html=1;outlineConnect=0;" vertex="1" parent="1">
          <mxGeometry x="1176" y="9" width="18" height="27" as="geometry" />
        </mxCell>
        <mxCell id="-NjdJhKXfd7tvw3mfi7Q-2" value="" style="endArrow=classic;html=1;rounded=0;exitX=1;exitY=1;exitDx=0;exitDy=0;exitPerimeter=0;" edge="1" parent="1">
          <mxGeometry width="50" height="50" relative="1" as="geometry">
            <mxPoint x="1184.85" y="36" as="sourcePoint" />
            <mxPoint x="1184.85" y="54" as="targetPoint" />
            <Array as="points">
              <mxPoint x="1184.85" y="45" />
            </Array>
          </mxGeometry>
        </mxCell>
        <mxCell id="-NjdJhKXfd7tvw3mfi7Q-9" value="" style="edgeStyle=orthogonalEdgeStyle;rounded=0;orthogonalLoop=1;jettySize=auto;html=1;" edge="1" parent="1" source="-NjdJhKXfd7tvw3mfi7Q-4" target="-NjdJhKXfd7tvw3mfi7Q-8">
          <mxGeometry relative="1" as="geometry" />
        </mxCell>
        <mxCell id="-NjdJhKXfd7tvw3mfi7Q-4" value="&lt;font style=&quot;font-size: 5px;&quot;&gt;логин&lt;/font&gt;" style="rounded=0;whiteSpace=wrap;html=1;" vertex="1" parent="1">
          <mxGeometry x="1176" y="54" width="18" height="18" as="geometry" />
        </mxCell>
        <mxCell id="-NjdJhKXfd7tvw3mfi7Q-11" style="edgeStyle=orthogonalEdgeStyle;rounded=0;orthogonalLoop=1;jettySize=auto;html=1;exitX=0;exitY=0.5;exitDx=0;exitDy=0;" edge="1" parent="1" source="-NjdJhKXfd7tvw3mfi7Q-8">
          <mxGeometry relative="1" as="geometry">
            <mxPoint x="1116" y="144" as="targetPoint" />
            <Array as="points">
              <mxPoint x="1116" y="108" />
              <mxPoint x="1116" y="135" />
            </Array>
          </mxGeometry>
        </mxCell>
        <mxCell id="-NjdJhKXfd7tvw3mfi7Q-12" style="edgeStyle=orthogonalEdgeStyle;rounded=0;orthogonalLoop=1;jettySize=auto;html=1;exitX=1;exitY=0.5;exitDx=0;exitDy=0;" edge="1" parent="1" source="-NjdJhKXfd7tvw3mfi7Q-8">
          <mxGeometry relative="1" as="geometry">
            <mxPoint x="1260" y="144" as="targetPoint" />
            <Array as="points">
              <mxPoint x="1260" y="108" />
              <mxPoint x="1260" y="144" />
            </Array>
          </mxGeometry>
        </mxCell>
        <mxCell id="-NjdJhKXfd7tvw3mfi7Q-8" value="&lt;font style=&quot;font-size: 5px;&quot;&gt;есть команда&lt;/font&gt;" style="rhombus;whiteSpace=wrap;html=1;rounded=0;" vertex="1" parent="1">
          <mxGeometry x="1162.5" y="90" width="45" height="36" as="geometry" />
        </mxCell>
        <mxCell id="-NjdJhKXfd7tvw3mfi7Q-13" value="да" style="text;html=1;align=center;verticalAlign=middle;resizable=0;points=[];autosize=1;strokeColor=none;fillColor=none;" vertex="1" parent="1">
          <mxGeometry x="1107" y="81" width="36" height="27" as="geometry" />
        </mxCell>
        <mxCell id="-NjdJhKXfd7tvw3mfi7Q-14" value="нет" style="text;html=1;align=center;verticalAlign=middle;resizable=0;points=[];autosize=1;strokeColor=none;fillColor=none;" vertex="1" parent="1">
          <mxGeometry x="1219" y="81" width="45" height="27" as="geometry" />
        </mxCell>
        <mxCell id="-NjdJhKXfd7tvw3mfi7Q-29" value="" style="edgeStyle=orthogonalEdgeStyle;rounded=0;orthogonalLoop=1;jettySize=auto;html=1;" edge="1" parent="1" source="-NjdJhKXfd7tvw3mfi7Q-16" target="-NjdJhKXfd7tvw3mfi7Q-28">
          <mxGeometry relative="1" as="geometry" />
        </mxCell>
        <mxCell id="-NjdJhKXfd7tvw3mfi7Q-16" value="&lt;font size=&quot;1&quot;&gt;создание&lt;/font&gt;" style="rounded=0;whiteSpace=wrap;html=1;" vertex="1" parent="1">
          <mxGeometry x="1080" y="144" width="72" height="36" as="geometry" />
        </mxCell>
        <mxCell id="-NjdJhKXfd7tvw3mfi7Q-17" value="&lt;font size=&quot;1&quot;&gt;просмотр/редактирование&lt;/font&gt;" style="rounded=0;whiteSpace=wrap;html=1;" vertex="1" parent="1">
          <mxGeometry x="1215" y="144" width="90" height="36" as="geometry" />
        </mxCell>
        <mxCell id="-NjdJhKXfd7tvw3mfi7Q-18" value="вкладки" style="rounded=0;whiteSpace=wrap;html=1;" vertex="1" parent="1">
          <mxGeometry x="36" y="36" width="360" height="36" as="geometry" />
        </mxCell>
        <mxCell id="-NjdJhKXfd7tvw3mfi7Q-22" style="edgeStyle=orthogonalEdgeStyle;rounded=0;orthogonalLoop=1;jettySize=auto;html=1;exitX=0.5;exitY=1;exitDx=0;exitDy=0;" edge="1" parent="1" source="-NjdJhKXfd7tvw3mfi7Q-19" target="-NjdJhKXfd7tvw3mfi7Q-23">
          <mxGeometry relative="1" as="geometry">
            <mxPoint x="72" y="180" as="targetPoint" />
          </mxGeometry>
        </mxCell>
        <mxCell id="-NjdJhKXfd7tvw3mfi7Q-19" value="команда" style="rounded=0;whiteSpace=wrap;html=1;" vertex="1" parent="1">
          <mxGeometry x="36" y="108" width="72" height="36" as="geometry" />
        </mxCell>
        <mxCell id="-NjdJhKXfd7tvw3mfi7Q-20" value="матчи(?)" style="rounded=0;whiteSpace=wrap;html=1;" vertex="1" parent="1">
          <mxGeometry x="108" y="108" width="72" height="36" as="geometry" />
        </mxCell>
        <mxCell id="-NjdJhKXfd7tvw3mfi7Q-21" value="новости(?)" style="rounded=0;whiteSpace=wrap;html=1;" vertex="1" parent="1">
          <mxGeometry x="180" y="108" width="72" height="36" as="geometry" />
        </mxCell>
        <mxCell id="-NjdJhKXfd7tvw3mfi7Q-23" value="трансферы" style="rounded=0;whiteSpace=wrap;html=1;" vertex="1" parent="1">
          <mxGeometry x="36" y="180" width="72" height="36" as="geometry" />
        </mxCell>
        <mxCell id="-NjdJhKXfd7tvw3mfi7Q-24" value="система баллов" style="ellipse;shape=cloud;whiteSpace=wrap;html=1;" vertex="1" parent="1">
          <mxGeometry x="513" width="135" height="81" as="geometry" />
        </mxCell>
        <mxCell id="-NjdJhKXfd7tvw3mfi7Q-25" value="статистика" style="rounded=0;whiteSpace=wrap;html=1;" vertex="1" parent="1">
          <mxGeometry x="252" y="108" width="72" height="36" as="geometry" />
        </mxCell>
        <mxCell id="-NjdJhKXfd7tvw3mfi7Q-26" value="туры" style="rounded=0;whiteSpace=wrap;html=1;" vertex="1" parent="1">
          <mxGeometry x="36" y="72" width="360" height="36" as="geometry" />
        </mxCell>
        <mxCell id="-NjdJhKXfd7tvw3mfi7Q-27" value="&lt;font size=&quot;1&quot;&gt;login/logout&lt;/font&gt;" style="rounded=0;whiteSpace=wrap;html=1;" vertex="1" parent="1">
          <mxGeometry x="324" y="108" width="72" height="36" as="geometry" />
        </mxCell>
        <mxCell id="-NjdJhKXfd7tvw3mfi7Q-31" value="" style="edgeStyle=orthogonalEdgeStyle;rounded=0;orthogonalLoop=1;jettySize=auto;html=1;" edge="1" parent="1" source="-NjdJhKXfd7tvw3mfi7Q-28" target="-NjdJhKXfd7tvw3mfi7Q-30">
          <mxGeometry relative="1" as="geometry" />
        </mxCell>
        <mxCell id="-NjdJhKXfd7tvw3mfi7Q-28" value="&lt;font size=&quot;1&quot;&gt;выбор игроков на разные позиции (сначала только таблица, потом мб поле)&lt;/font&gt;" style="whiteSpace=wrap;html=1;rounded=0;" vertex="1" parent="1">
          <mxGeometry x="972" y="252" width="108" height="72" as="geometry" />
        </mxCell>
        <mxCell id="-NjdJhKXfd7tvw3mfi7Q-30" value="&lt;font size=&quot;1&quot;&gt;получение очков команды/игроков (???)&lt;/font&gt;" style="whiteSpace=wrap;html=1;rounded=0;" vertex="1" parent="1">
          <mxGeometry x="972" y="360" width="108" height="72" as="geometry" />
        </mxCell>
        <mxCell id="-NjdJhKXfd7tvw3mfi7Q-32" value="&lt;font size=&quot;1&quot;&gt;получение очков команды/игроков (???)&lt;/font&gt;" style="whiteSpace=wrap;html=1;rounded=0;" vertex="1" parent="1">
          <mxGeometry x="1296" y="252" width="108" height="72" as="geometry" />
        </mxCell>
        <mxCell id="-NjdJhKXfd7tvw3mfi7Q-33" value="" style="endArrow=classic;html=1;rounded=0;entryX=0.472;entryY=-0.017;entryDx=0;entryDy=0;entryPerimeter=0;" edge="1" parent="1" target="-NjdJhKXfd7tvw3mfi7Q-32">
          <mxGeometry width="50" height="50" relative="1" as="geometry">
            <mxPoint x="1260" y="180" as="sourcePoint" />
            <mxPoint x="1094" y="297" as="targetPoint" />
            <Array as="points">
              <mxPoint x="1260" y="198" />
              <mxPoint x="1296" y="198" />
              <mxPoint x="1350" y="198" />
            </Array>
          </mxGeometry>
        </mxCell>
        <mxCell id="-NjdJhKXfd7tvw3mfi7Q-36" value="&lt;font size=&quot;1&quot;&gt;трансферы&lt;/font&gt;&lt;div&gt;&lt;font size=&quot;1&quot;&gt;&lt;br&gt;&lt;/font&gt;&lt;/div&gt;" style="whiteSpace=wrap;html=1;rounded=0;" vertex="1" parent="1">
          <mxGeometry x="1440" y="252" width="108" height="72" as="geometry" />
        </mxCell>
        <mxCell id="-NjdJhKXfd7tvw3mfi7Q-37" value="" style="endArrow=classic;html=1;rounded=0;entryX=0.656;entryY=-0.032;entryDx=0;entryDy=0;entryPerimeter=0;" edge="1" parent="1" target="-NjdJhKXfd7tvw3mfi7Q-36">
          <mxGeometry width="50" height="50" relative="1" as="geometry">
            <mxPoint x="1350" y="198" as="sourcePoint" />
            <mxPoint x="1391" y="153" as="targetPoint" />
            <Array as="points">
              <mxPoint x="1512" y="198" />
            </Array>
          </mxGeometry>
        </mxCell>
      </root>
    </mxGraphModel>
  </diagram>
</mxfile>
